<mxfile host="app.diagrams.net" agent="Mozilla/5.0 (X11; Linux x86_64) AppleWebKit/537.36 (KHTML, like Gecko) Chrome/139.0.0.0 Safari/537.36" version="28.2.7">
  <diagram name="Page-1" id="RD2lEjMg1r9ExISt4TI4">
    <mxGraphModel dx="1290" dy="465" grid="1" gridSize="10" guides="1" tooltips="1" connect="1" arrows="1" fold="1" page="1" pageScale="1" pageWidth="850" pageHeight="1100" math="0" shadow="0">
      <root>
        <mxCell id="0" />
        <mxCell id="1" parent="0" />
        <mxCell id="5oD5VQ0yYb9wX-e5ISNJ-6" value="" style="edgeStyle=orthogonalEdgeStyle;rounded=0;orthogonalLoop=1;jettySize=auto;html=1;" parent="1" source="5oD5VQ0yYb9wX-e5ISNJ-2" target="5oD5VQ0yYb9wX-e5ISNJ-5" edge="1">
          <mxGeometry relative="1" as="geometry" />
        </mxCell>
        <mxCell id="5oD5VQ0yYb9wX-e5ISNJ-2" value="DECOMPRESSOR&lt;div&gt;(Ours)&lt;/div&gt;" style="shape=cube;whiteSpace=wrap;html=1;boundedLbl=1;backgroundOutline=1;darkOpacity=0.05;darkOpacity2=0.1;fillColor=#e1d5e7;strokeColor=#9673a6;" parent="1" vertex="1">
          <mxGeometry x="220" y="279" width="150" height="100" as="geometry" />
        </mxCell>
        <mxCell id="5oD5VQ0yYb9wX-e5ISNJ-7" value="" style="edgeStyle=orthogonalEdgeStyle;rounded=0;orthogonalLoop=1;jettySize=auto;html=1;exitX=0.998;exitY=0.531;exitDx=0;exitDy=0;exitPerimeter=0;" parent="1" source="5oD5VQ0yYb9wX-e5ISNJ-3" target="5oD5VQ0yYb9wX-e5ISNJ-2" edge="1">
          <mxGeometry relative="1" as="geometry" />
        </mxCell>
        <mxCell id="5oD5VQ0yYb9wX-e5ISNJ-3" value="SCRATCHPAD&lt;div&gt;(Compressed weights)&lt;/div&gt;" style="shape=cube;whiteSpace=wrap;html=1;boundedLbl=1;backgroundOutline=1;darkOpacity=0.05;darkOpacity2=0.1;fillColor=#dae8fc;strokeColor=#6c8ebf;" parent="1" vertex="1">
          <mxGeometry x="50" y="250" width="130" height="149" as="geometry" />
        </mxCell>
        <mxCell id="5oD5VQ0yYb9wX-e5ISNJ-5" value="eIQ NEUTRON NPU" style="rounded=1;whiteSpace=wrap;html=1;fillColor=#f5f5f5;strokeColor=#666666;strokeWidth=2;fontColor=#333333;" parent="1" vertex="1">
          <mxGeometry x="440" y="259" width="140" height="140" as="geometry" />
        </mxCell>
        <mxCell id="NZvLJ7g3TTBVGvGm7QKT-1" value="ACTIVATIONS" style="shape=cube;whiteSpace=wrap;html=1;boundedLbl=1;backgroundOutline=1;darkOpacity=0.05;darkOpacity2=0.1;fillColor=#dae8fc;strokeColor=#6c8ebf;" vertex="1" parent="1">
          <mxGeometry x="440" y="140" width="130" height="79" as="geometry" />
        </mxCell>
      </root>
    </mxGraphModel>
  </diagram>
</mxfile>
